# xmcd CD database file
#
# Track frame offsets:
#	150
#	12448
#	22622
#	33131
#	44588
#	58511
#	67433
#	75983
#	86700
#	99318
#	109830
#	120010
#	130462
#	140169
#	151171
#	161410
#	173450
#	183921
#	198797
#	210972
#	220113
#
# Disc length: 3092 seconds
#
# Revision: 2
# Processed by: cddbd v1.5.1PL0 Copyright (c) Steve Scherf et al.
# Submitted via: CDex 1.51
#
DISCID=070c1215
DTITLE=Charlie Feathers - Get With It: Essential Recordings (1954-69) CD1
DYEAR=1900
DGENRE=Country
TTITLE0=I've Been Deceived
TTITLE1=Peepin' Eyes
TTITLE2=Someday You Will Pay
TTITLE3=Defrost Your Heart
TTITLE4=Wedding Gown Of White
TTITLE5=Get With It
TTITLE6=Tongue Tied Jill
TTITLE7=One Hand Loose
TTITLE8=Can't Hardly Stand It
TTITLE9=Bottle To The Baby
TTITLE10=Everybody's Lovin' My Baby
TTITLE11=Too Much Alike
TTITLE12=When You Come Around
TTITLE13=When You Decide
TTITLE14=Nobody's Woman
TTITLE15=Jungle Fever
TTITLE16=Why Don't You
TTITLE17=Dinky John
TTITLE18=South Of Chicago
TTITLE19=Nobody's Darlin'
TTITLE20=Deep Elm Blues
EXTD=
EXTT0=
EXTT1=
EXTT2=
EXTT3=
EXTT4=
EXTT5=
EXTT6=
EXTT7=
EXTT8=
EXTT9=
EXTT10=
EXTT11=
EXTT12=
EXTT13=
EXTT14=
EXTT15=
EXTT16=
EXTT17=
EXTT18=
EXTT19=
EXTT20=
PLAYORDER=
